<svg width="100" height="58" viewBox="0 0 100 58" fill="none" xmlns="http://www.w3.org/2000/svg">
<g clip-path="url(#clip0)">
<path fill-rule="evenodd" clip-rule="evenodd" d="M36.9794 7.31638L41.349 2.45049C36.3981 -1.16346 29.4538 -0.0867754 25.8307 4.85809C22.2066 9.80399 23.2712 16.7493 28.2099 20.3825C25.5502 17.7217 25.2787 13.8504 27.3115 10.6841C29.3444 7.5179 32.617 6.20623 36.9794 7.31638ZM51.6479 5.75449L39.9665 19.9915C38.6122 21.6414 36.0182 22.7232 33.8659 22.7232C33.0971 22.7232 32.3536 22.6159 31.6497 22.4122C37.6621 24.7136 44.7877 23.3188 47.9499 20.4028L48.3318 19.9429L48.6022 15.5723L49.1573 19.6249L49.4206 20.2052C50.1549 22.0081 51.2407 23.6297 52.596 24.984C55.2123 27.6012 58.8282 29.2208 62.823 29.2208C66.8158 29.2208 70.4317 27.6012 73.05 24.984C74.5977 23.4373 75.796 21.5401 76.5181 19.4222H69.3541C69.0917 19.7454 68.799 20.0928 68.4789 20.4128C67.1125 21.7802 65.2539 22.6543 63.1927 22.7475C63.2332 22.7486 63.2747 22.7486 63.3153 22.7486C54.6278 24.1251 48.2781 15.6179 51.261 7.65362C52.4127 4.57955 54.8334 2.39173 57.7444 1.22085C55.3956 2.12838 53.3506 3.68012 51.6479 5.75449ZM65.9204 11.5238C62.349 11.5238 59.6983 13.7623 59.6983 17.3337H70.3852C72.0149 17.3337 72.9609 16.8475 73.4623 16.2155L76.9081 11.5208L72.5274 11.217L72.8231 11.2524L65.9204 11.5238Z" fill="#A9C500"/>
<path fill-rule="evenodd" clip-rule="evenodd" d="M47.9501 20.4028C44.7878 23.3188 37.6622 24.7146 31.6498 22.4122C30.332 22.0335 29.153 21.3254 28.2101 20.3814C23.2713 16.7493 22.2068 9.80399 25.8308 4.8581C28.0743 1.79719 31.5901 0.218111 35.1179 0.317372C34.7117 0.28496 34.2944 0.267741 33.866 0.262677C29.8722 0.262677 26.2562 1.88227 23.639 4.49954C21.0207 7.11682 19.4021 10.7328 19.4021 14.7266C19.4021 18.7204 21.0207 22.3363 23.639 24.9536C26.2572 27.5709 29.8722 29.1904 33.866 29.1904C35.989 29.1904 38.0643 28.7195 39.9544 27.8393H39.9675C41.8363 26.9702 43.5319 25.6788 44.9195 24.0309L44.958 24.0065L47.9501 20.4028ZM55.8951 10.7571C56.2496 10.1433 56.678 9.58826 57.1672 9.10102C57.6058 8.66145 58.092 8.27659 58.6167 7.95348C59.8392 7.19582 61.2805 6.75927 62.8231 6.75927C65.7412 6.75826 68.2835 8.46797 69.6945 11.0225L72.5265 11.218L76.9072 11.5218C76.0432 7.75391 73.6417 4.59273 70.4217 2.45657C70.4146 2.45151 70.4065 2.44745 70.4004 2.44138C66.59 -0.0786623 61.711 -0.375436 57.7435 1.21985C54.8325 2.38972 52.4117 4.57754 51.2601 7.65261C48.2782 15.6169 54.627 24.1251 63.3144 22.7475C63.2738 22.7475 63.2323 22.7475 63.1918 22.7465C60.4358 22.706 57.4519 21.2688 55.9994 18.933C55.9629 18.8743 55.9285 18.8166 55.8941 18.7558C55.2134 17.5799 54.8234 16.2135 54.8234 14.757C54.8234 13.3004 55.2144 11.933 55.8951 10.7571ZM38.8493 15.7313L43.4701 9.93362C44.0464 9.21043 44.8193 7.54022 44.2358 6.68432L41.3501 2.45151L38.8422 5.24299L39.1664 4.94825L37.3472 7.71341C36.3941 9.53355 36.537 11.9796 37.4222 13.8089C37.9023 14.7995 38.0816 15.0213 38.8493 15.7313Z" fill="#008C33"/>
<path d="M18.6186 52.9016C18.6135 51.9414 18.3939 51.0775 17.9592 50.3106C17.5186 49.5338 16.9041 48.9261 16.1142 48.4855C15.3237 48.0448 14.4225 47.8261 13.4096 47.8261C12.5395 47.8261 11.7728 47.9801 11.1094 48.2869C10.4469 48.5948 9.9172 49 9.51916 49.5004C9.12213 50.0027 8.84764 50.5467 8.69568 51.1331L10.7832 52.0701C10.925 51.3793 11.2319 50.8425 11.706 50.4585C12.1789 50.0757 12.7614 49.8843 13.4521 49.8843C14.0953 49.8843 14.6635 50.0615 15.1555 50.416C15.6483 50.7705 15.9932 51.2557 16.1918 51.8715L12.3299 52.0093V52.9016V53.794L16.1918 53.9317C15.9932 54.5465 15.6483 55.0317 15.1555 55.3872C14.6635 55.7427 14.0953 55.919 13.4521 55.919C12.7614 55.919 12.1789 55.7275 11.706 55.3447C11.2319 54.9608 10.925 54.424 10.7832 53.7332L8.69568 54.6701C8.84662 55.2566 9.12111 55.8015 9.51916 56.3029C9.9172 56.8042 10.4469 57.2094 11.1094 57.5163C11.7728 57.8242 12.5395 57.9772 13.4096 57.9772C14.4225 57.9772 15.3237 57.7574 16.1142 57.3177C16.9041 56.8772 17.5186 56.2694 17.9592 55.4925C18.3939 54.7258 18.6135 53.8628 18.6186 52.9016Z" fill="black"/>
<path d="M20.0671 47.9689V57.9062H22.3388V54.0735L25.8301 57.9062H28.954L24.0569 52.7102L28.7127 47.9689H25.7736L22.3388 51.4897V47.9689H20.0671Z" fill="black"/>
<path d="M28.7424 50.3674C28.2736 51.1524 28.0396 52.0093 28.0396 52.9371C28.0396 53.8649 28.2736 54.7217 28.7424 55.5067C29.2106 56.2917 29.8468 56.9126 30.6519 57.3664C31.4562 57.8201 32.3359 58.048 33.291 58.048C34.2475 58.048 35.128 57.8201 35.9316 57.3664C36.7359 56.9126 37.3729 56.2917 37.841 55.5067C38.3098 54.7217 38.5439 53.8649 38.5439 52.9371C38.5439 52.0093 38.3098 51.1524 37.841 50.3674C37.3729 49.5824 36.7359 48.9615 35.9316 48.5077C35.128 48.054 34.2475 47.8261 33.291 47.8261C32.3359 47.8261 31.4548 48.054 30.6519 48.5077C29.8468 48.9625 29.2106 49.5824 28.7424 50.3674ZM30.7077 54.5131C30.4424 54.0593 30.3091 53.5336 30.3091 52.9371C30.3091 52.3405 30.4424 51.8158 30.7077 51.361C30.9729 50.9062 31.3316 50.5588 31.7859 50.3177C32.2403 50.0767 32.741 49.9562 33.2903 49.9562C33.8395 49.9562 34.341 50.0767 34.7953 50.3177C35.249 50.5588 35.6091 50.9072 35.8729 51.361C36.1374 51.8148 36.2714 52.3405 36.2714 52.9371C36.2714 53.5336 36.1388 54.0583 35.8729 54.5131C35.6077 54.9679 35.249 55.3153 34.7953 55.5564C34.341 55.7975 33.8395 55.918 33.2903 55.918C32.741 55.918 32.2403 55.7975 31.7859 55.5564C31.3323 55.3153 30.9729 54.9669 30.7077 54.5131Z" fill="black"/>
<path d="M42.1011 50.027H46.5026V57.9062H48.7729V47.9689H39.8294V57.9062H42.1011V50.027Z" fill="black"/>
<path d="M50.7736 50.3674C50.3055 51.1524 50.0715 52.0093 50.0715 52.9371C50.0715 53.8649 50.3055 54.7217 50.7736 55.5067C51.2425 56.2917 51.8787 56.9126 52.6838 57.3664C53.4881 57.8201 54.3686 58.048 55.3236 58.048C56.2794 58.048 57.1599 57.8201 57.9642 57.3664C58.7686 56.9126 59.4055 56.2917 59.8736 55.5067C60.3425 54.7217 60.5765 53.8649 60.5765 52.9371C60.5765 52.0093 60.3425 51.1524 59.8736 50.3674C59.4055 49.5824 58.7686 48.9615 57.9642 48.5077C57.1599 48.054 56.2794 47.8261 55.3236 47.8261C54.3686 47.8261 53.4874 48.054 52.6838 48.5077C51.8787 48.9625 51.2425 49.5824 50.7736 50.3674ZM52.7396 54.5131C52.4744 54.0593 52.3418 53.5336 52.3418 52.9371C52.3418 52.3405 52.4744 51.8158 52.7396 51.361C53.0048 50.9062 53.3642 50.5588 53.8186 50.3177C54.2722 50.0767 54.7736 49.9562 55.3222 49.9562C55.8715 49.9562 56.3729 50.0767 56.8273 50.3177C57.2816 50.5588 57.641 50.9072 57.9055 51.361C58.1693 51.8148 58.3033 52.3405 58.3033 52.9371C58.3033 53.5336 58.1707 54.0583 57.9055 54.5131C57.6396 54.9679 57.2816 55.3153 56.8273 55.5564C56.3729 55.7975 55.8715 55.918 55.3222 55.918C54.7736 55.918 54.2722 55.7975 53.8186 55.5564C53.3642 55.3153 53.0048 54.9669 52.7396 54.5131Z" fill="black"/>
<path d="M76.1765 57.9062L79.812 49.4871V57.9062H82.0823V47.9678H78.1924L74.5576 56.3878V47.9678H72.2874V57.9062H76.1765Z" fill="black"/>
<path d="M87.1975 50.2611C87.6374 50.0109 88.1222 49.8853 88.6533 49.8853C89.3439 49.8853 89.9265 50.0767 90.399 50.4596C90.8736 50.8435 91.1801 51.3803 91.3222 52.0711L93.4099 51.1341C93.2671 50.5102 92.9932 49.9491 92.5859 49.4517C92.1787 48.9554 91.6461 48.5594 90.9888 48.2667C90.3316 47.973 89.5664 47.8261 88.6954 47.8261C87.72 47.8261 86.8352 48.0489 86.041 48.4935C85.2461 48.9372 84.6207 49.551 84.1664 50.3309C83.712 51.1119 83.4845 51.9799 83.4845 52.9361C83.4845 53.8922 83.712 54.7602 84.1664 55.5412C84.62 56.3221 85.2446 56.9349 86.041 57.3785C86.8352 57.8232 87.72 58.046 88.6954 58.046C89.5657 58.046 90.3302 57.8991 90.9888 57.6054C91.6461 57.3127 92.1787 56.9167 92.5859 56.4204C92.9925 55.923 93.2671 55.3619 93.4099 54.738L91.3222 53.8011C91.1801 54.4918 90.8736 55.0287 90.399 55.4125C89.9265 55.7954 89.3439 55.9869 88.6533 55.9869C88.1236 55.9869 87.6374 55.8612 87.1975 55.6111C86.7562 55.3598 86.4077 55.0043 86.1461 54.5455C85.8859 54.0867 85.7562 53.5498 85.7562 52.9341C85.7562 52.3182 85.8859 51.7814 86.1461 51.3225C86.4077 50.8677 86.7562 50.5122 87.1975 50.2611Z" fill="black"/>
<path fill-rule="evenodd" clip-rule="evenodd" d="M60.9512 58.0085H63.2773C64.3287 56.2663 64.4562 53.723 64.4562 52.1206V50.0483H67.8012V58.0085H70.0961V47.9678H62.1613V52.1216C62.1606 54.9486 61.5418 56.8467 60.9512 58.0085Z" fill="black"/>
<path d="M0 34.1988V44.0723H2.25666V40.2639L5.72681 44.0723H8.83014L3.9634 38.9097L8.59029 34.1988H5.67007L2.25666 37.6973V34.1988H0Z" fill="black"/>
<path d="M8.61854 36.5821C8.15332 37.363 7.92072 38.2138 7.92072 39.1355C7.92072 40.0573 8.1526 40.9081 8.61854 41.689C9.08448 42.4699 9.71636 43.0847 10.5156 43.5365C11.3149 43.9882 12.1888 44.2131 13.1388 44.2131C14.0888 44.2131 14.9635 43.9872 15.762 43.5365C16.5613 43.0858 17.1932 42.4689 17.6591 41.689C18.1251 40.9091 18.3569 40.0573 18.3569 39.1355C18.3569 38.2138 18.1251 37.363 17.6591 36.5821C17.1932 35.8021 16.5613 35.1863 15.762 34.7346C14.9635 34.2838 14.0881 34.058 13.1388 34.058C12.1888 34.058 11.3149 34.2838 10.5156 34.7346C9.71636 35.1863 9.08303 35.8021 8.61854 36.5821ZM10.5722 40.7014C10.3091 40.2507 10.1772 39.7291 10.1772 39.1365C10.1772 38.544 10.3091 38.0224 10.5722 37.5706C10.8359 37.1189 11.1932 36.7735 11.6446 36.5345C12.0968 36.2944 12.5953 36.1749 13.1403 36.1749C13.6852 36.1749 14.1845 36.2954 14.6352 36.5345C15.0867 36.7735 15.4432 37.1199 15.7077 37.5706C15.9707 38.0224 16.1026 38.544 16.1026 39.1365C16.1026 39.7291 15.9707 40.2507 15.7077 40.7014C15.4439 41.1531 15.0867 41.4986 14.6352 41.7386C14.1845 41.9776 13.6852 42.0982 13.1403 42.0982C12.5953 42.0982 12.0968 41.9776 11.6446 41.7386C11.1932 41.4986 10.8359 41.1531 10.5722 40.7014Z" fill="black"/>
<path d="M21.891 44.0723V40.4057H24.3599C25.0744 40.4057 25.6816 40.2578 26.1794 39.961C26.678 39.6642 27.0519 39.2793 27.3012 38.8043C27.5505 38.3293 27.6751 37.8238 27.6751 37.287C27.6751 36.733 27.5519 36.2194 27.3084 35.7494C27.0642 35.2795 26.6925 34.9037 26.1932 34.6211C25.6947 34.3395 25.0831 34.1977 24.3584 34.1977H19.6338V44.0723H21.891ZM24.2186 38.3596H21.891V36.2437H24.2186C24.5852 36.2437 24.8758 36.3349 25.0932 36.5182C25.3099 36.7016 25.4171 36.9619 25.4171 37.3012C25.4171 37.6405 25.3099 37.9008 25.0932 38.0841C24.8758 38.2675 24.5852 38.3596 24.2186 38.3596Z" fill="black"/>
<path d="M31.2084 36.2438H35.5802V44.0723H37.8367V34.1988H28.9512V44.0723H31.2084V36.2438Z" fill="black"/>
<path d="M39.8128 36.5821C39.3468 37.363 39.1149 38.2138 39.1149 39.1355C39.1149 40.0573 39.3468 40.9081 39.8128 41.689C40.278 42.4699 40.9098 43.0847 41.7091 43.5365C42.5091 43.9882 43.3838 44.2131 44.3338 44.2131C45.2838 44.2131 46.1577 43.9872 46.957 43.5365C47.7562 43.0858 48.3888 42.4689 48.8541 41.689C49.32 40.9081 49.5519 40.0573 49.5519 39.1355C49.5519 38.2138 49.32 37.363 48.8541 36.5821C48.3888 35.8021 47.7562 35.1863 46.957 34.7346C46.1577 34.2838 45.2838 34.058 44.3338 34.058C43.3838 34.058 42.5091 34.2838 41.7091 34.7346C40.9098 35.1863 40.278 35.8021 39.8128 36.5821ZM41.7656 40.7014C41.5019 40.2507 41.37 39.7291 41.37 39.1365C41.37 38.544 41.5019 38.0224 41.7656 37.5706C42.0294 37.1189 42.3859 36.7735 42.8374 36.5345C43.2896 36.2944 43.7874 36.1749 44.3338 36.1749C44.8794 36.1749 45.3765 36.2954 45.8294 36.5345C46.2801 36.7735 46.6381 37.1199 46.9012 37.5706C47.1657 38.0224 47.2975 38.544 47.2975 39.1365C47.2975 39.7291 47.1657 40.2507 46.9012 40.7014C46.6381 41.1531 46.2816 41.4986 45.8294 41.7386C45.378 41.9776 44.8794 42.0982 44.3338 42.0982C43.7874 42.0982 43.2903 41.9776 42.8374 41.7386C42.3867 41.4986 42.0294 41.1531 41.7656 40.7014Z" fill="black"/>
<path d="M53.0845 44.0723V40.4057H55.554C56.2685 40.4057 56.8758 40.2578 57.3743 39.961C57.8714 39.6652 58.2453 39.2793 58.4946 38.8043C58.7439 38.3293 58.8685 37.8238 58.8685 37.287C58.8685 36.733 58.7461 36.2194 58.5019 35.7494C58.2577 35.2795 57.8866 34.9037 57.3874 34.6211C56.8888 34.3395 56.2772 34.1977 55.5533 34.1977H50.8279V44.0723H53.0845ZM55.4127 38.3596H53.0845V36.2437H55.4127C55.7794 36.2437 56.0707 36.3349 56.2866 36.5182C56.5033 36.7016 56.6106 36.9619 56.6106 37.3012C56.6106 37.6405 56.5033 37.9008 56.2866 38.0841C56.0707 38.2685 55.7794 38.3596 55.4127 38.3596Z" fill="black"/>
<path d="M61.9077 34.1988L58.0287 44.0734H60.4982L61.2598 42.0273H65.8012L66.5635 44.0734H69.0323L65.1533 34.1988H61.9077ZM65.0395 39.9823H62.0214L63.5309 35.948L65.0395 39.9823Z" fill="black"/>
<path d="M77.065 44.0724V45.624H79.1106V42.0274H77.9106V34.1988H75.6541V42.0274H72.1693V34.1988H69.9128V44.0724H77.065Z" fill="black"/>
<path d="M84.0823 44.0723L87.6932 35.708V44.0723H89.9504V34.1988H86.0845L82.4744 42.5631V34.1988H80.2171V44.0723H84.0823Z" fill="black"/>
<path d="M91.2258 43.8475V44.0734H93.6802L96.6983 40.3358H97.4034V44.0734H99.6613V34.1988H94.7244C94.0657 34.1988 93.4845 34.3284 92.9809 34.5867C92.4787 34.845 92.091 35.2026 91.8186 35.6583C91.5447 36.1152 91.4099 36.6388 91.4099 37.2313C91.4099 37.8705 91.5512 38.4184 91.8324 38.8752C92.1142 39.3321 92.4679 39.6795 92.891 39.9195C93.3142 40.1586 93.7323 40.2984 94.1461 40.3358L91.2258 43.8475ZM97.4041 38.2898H94.7954C94.4005 38.2898 94.1012 38.1885 93.8997 37.9859C93.6976 37.7834 93.5961 37.5322 93.5961 37.2313C93.5961 36.9305 93.6954 36.6905 93.8918 36.5122C94.0896 36.3339 94.3903 36.2438 94.7954 36.2438H97.4041V38.2898Z" fill="black"/>
</g>
<defs>
<clipPath id="clip0">
<rect width="100" height="57.971" fill="white"/>
</clipPath>
</defs>
</svg>
